<?xml version="1.0" encoding="utf-8"?>
<!-- Generator: Adobe Illustrator 22.1.0, SVG Export Plug-In . SVG Version: 6.00 Build 0)  -->
<svg version="1.1" xmlns="http://www.w3.org/2000/svg" xmlns:xlink="http://www.w3.org/1999/xlink" x="0px" y="0px"
	 viewBox="0 0 500 500" style="enable-background:new 0 0 500 500;" xml:space="preserve">
<style type="text/css">
	.st0{display:none;}
	.st1{display:inline;fill:#FFFFFF;}
	.st2{fill:#FFFFFF;}
</style>
<g id="BACKGROUND" class="st0">
	<rect class="st1" width="500" height="500"/>
</g>
<g id="OBJECTS">
	<g>
		<g>
			<g>
				<g>
					<path class="st2" d="M389.8,308L389.8,308c-4,0-7.7,1.4-10.5,3.8c-3.2,2.7-5.2,6.6-5.2,11v147.4c0,5.2,2.8,9.7,7,12.3
						c2.5,1.6,5.5,2.5,8.7,2.5h0c4.3,0,8.3-1.7,11.1-4.3c2.8-2.7,4.6-6.4,4.6-10.5V322.9c0-4.2-1.8-8-4.8-10.6
						C397.9,309.6,394,308,389.8,308z M400,351.7c0,0-1.5-25.8-4.9-32.8c-2-4.2-6.4-5.5-6.4-5.5s11.3-1.1,11.3,11.2V351.7z"/>
					<path class="st2" d="M443.5,329.5c-2.5-1.6-5.5-2.5-8.8-2.5c-1.6,0-3.2,0.2-4.6,0.7c-6.4,1.9-11.1,7.5-11.1,14.2v109.6
						c0,5.4,3,10.1,7.6,12.7c2.4,1.4,5.2,2.2,8.2,2.2c3.5,0,6.7-1.1,9.3-2.9c3.9-2.7,6.4-7,6.4-11.9V341.7
						C450.4,336.6,447.6,332.1,443.5,329.5z M444.7,371.2c0,0-1.5-25.8-4.9-32.8c-2-4.2-6.4-5.5-6.4-5.5s11.3-1.1,11.3,11.2V371.2z"
						/>
					<path class="st2" d="M488.4,349c-2.5-1.6-5.5-2.5-8.8-2.5c-4.3,0-8.3,1.7-11.1,4.3c-2.8,2.7-4.6,6.4-4.6,10.5v70.5
						c0,5.1,2.8,9.6,6.9,12.3c2.5,1.6,5.5,2.5,8.8,2.5c2.8,0,5.4-0.7,7.6-1.9c4.8-2.5,8.1-7.4,8.1-13v-70.5
						C495.3,356.2,492.5,351.7,488.4,349z M490.1,390.4c0,0-1.5-25.8-4.9-32.8c-2-4.2-6.4-5.5-6.4-5.5s11.3-1.1,11.3,11.2V390.4z"/>
				</g>
				<g>
					<path class="st2" d="M105.5,308L105.5,308c4,0,7.7,1.4,10.5,3.8c3.2,2.7,5.2,6.6,5.2,11v147.4c0,5.2-2.8,9.7-7,12.3
						c-2.5,1.6-5.5,2.5-8.7,2.5h0c-4.3,0-8.3-1.7-11.1-4.3c-2.8-2.7-4.6-6.4-4.6-10.5V322.9c0-4.2,1.8-8,4.8-10.6
						C97.4,309.6,101.3,308,105.5,308z M95.3,351.7c0,0,1.5-25.8,4.9-32.8c2-4.2,6.4-5.5,6.4-5.5s-11.3-1.1-11.3,11.2V351.7z"/>
					<path class="st2" d="M51.8,329.5c2.5-1.6,5.5-2.5,8.8-2.5c1.6,0,3.2,0.2,4.6,0.7c6.4,1.9,11.1,7.5,11.1,14.2v109.6
						c0,5.4-3,10.1-7.6,12.7c-2.4,1.4-5.2,2.2-8.2,2.2c-3.5,0-6.7-1.1-9.3-2.9c-3.9-2.7-6.4-7-6.4-11.9V341.7
						C44.9,336.6,47.6,332.1,51.8,329.5z M50.6,371.2c0,0,1.5-25.8,4.9-32.8c2-4.2,6.4-5.5,6.4-5.5s-11.3-1.1-11.3,11.2V371.2z"/>
					<path class="st2" d="M6.9,349c2.5-1.6,5.5-2.5,8.8-2.5c4.3,0,8.3,1.7,11.1,4.3c2.8,2.7,4.6,6.4,4.6,10.5v70.5
						c0,5.1-2.8,9.6-6.9,12.3c-2.5,1.6-5.5,2.5-8.8,2.5c-2.8,0-5.4-0.7-7.6-1.9c-4.8-2.5-8.1-7.4-8.1-13v-70.5
						C0,356.2,2.8,351.7,6.9,349z M5.2,390.4c0,0,1.5-25.8,4.9-32.8c2-4.2,6.4-5.5,6.4-5.5s-11.3-1.1-11.3,11.2V390.4z"/>
				</g>
			</g>
			<path class="st2" d="M134.3,382.3v28.4H361v-28.4H134.3z M348.6,392.3H146.7v-4h201.8V392.3z"/>
			<path class="st2" d="M191.4,448.5l-16.9-2.3l-7.6-14.5l-7.6,14.5l-16.9,2.3l12.3,11.3l-2.9,15.9l15.2-7.5l15.2,7.5l-2.9-15.9
				L191.4,448.5z M166.8,439.5l4.5,8.7l-4.5,5.5V439.5z M168.6,454.3l15-3.3l-8.1,6.5L168.6,454.3z M272.2,448.5l-16.9-2.3
				l-7.6-14.5l-7.6,14.5l-16.9,2.3l12.3,11.3l-2.9,15.9l15.2-7.5l15.2,7.5l-2.9-15.9L272.2,448.5z M247.6,439.5l4.5,8.7l-4.5,5.5
				V439.5z M249.5,454.3l15-3.3l-8.1,6.5L249.5,454.3z M353,448.5l-16.9-2.3l-7.6-14.5l-7.6,14.5l-16.9,2.3l12.3,11.3l-2.9,15.9
				l15.2-7.5l15.2,7.5l-2.9-15.9L353,448.5z M328.5,439.5l4.5,8.7l-4.5,5.5V439.5z M330.3,454.3l15-3.3l-8.1,6.5L330.3,454.3z"/>
			<path class="st2" d="M480.7,150.9c-4.3-13.8-4.9-23.2-14.9-52.5c-10-29.3-37.6-59.3-40.7-65.7c-3.1-6.4-6.4-12.7-16-16.8
				c-9.6-4.1-35.1-15.8-38.8-16c-3.7-0.1-7.5,1.8-12.8,5c-5.3,3.2-10.4,4-10,8.3c0.3,4.2,2.8,21.5,5.8,25.3c3,3.8,14.8,3,14.8,3
				c0.3,4.5,6.5,7.5,17.4,6.2c11-1.3,16.7-2.2,16.7-2.2c12,34.7-8.4,66.8,4.2,81.7c16.1,19.1,41.3,10.7,41.3,10.7s-5.1,9.3-31.5,1.9
				c-26.3-7.4-49.7,11-49.7,11c14.4,8.1,16.5,18,16.5,18c-21.6-29.3-72.1-17.8-72.1-17.8C330.4,163.2,333,174,333,174
				c-9.5-13.4-29.3-21.5-29.3-21.5s-33.6-16.5-43.6-30.6c15.9,13.7,28.3,15.1,28.3,15.1s-8.7-19.4-1.4-32.5
				c7.2-13.1,10.9-50.7-13.4-57.8c0,0-0.4-26.9-35.1-25.7c-22.8,0.8-48.6,9.7-62.9,1.8c0,0,9.5,24,21.2,24c0,0-8.6,1.9-10.8,0
				c0,0,1.2,8.7,8.6,11.6c0,0-0.1,5.1-3.7,10.2c-3.6,5.2-1.7,8.4,0.5,10.1c0,0-2.2,5.8-5.1,10c-2.9,4.3-1.5,6.4,0.4,7.6
				c1.9,1.2,4.4,3.7,4.4,3.7s-1.2,4.5,0.8,5.6c2,1.2,2,1.2,2,1.2s-1.2,2.3-0.2,4.8c1.1,2.5,2.2,3,1.6,5.6
				c-0.6,2.6-4.8,10.1-1.1,11.6c2.5,1.1,9.7,0.1,15.2,1.4c1.2,0,2.4,0.3,3.6,0.6c0,0,1.3,0.8,2.7,3.2c0,0,1.3,4.9-18,17h0
				c-3.1,1.4-5.4,2.2-5.4,2.2c-11.8,4-21.6,11.2-30.3,20.7c0,0,5.6-12.2,24.9-23.2c0,0-53.3-11.3-74.9,18.1c0,0,2-9.9,16.5-18
				c0,0-23.3-18.4-49.7-11c-26.3,7.4-31.5-1.9-31.5-1.9s25.2,8.3,41.3-10.7c12.6-15-7.8-47,4.2-81.7c0,0,5.8,0.9,16.7,2.2
				c11,1.3,17.1-1.7,17.4-6.2c0,0,11.8,0.8,14.8-3c3-3.8,5.4-21.1,5.8-25.3c0.3-4.2-4.7-5-10-8.3s-9.1-5.1-12.8-5
				c-3.7,0.1-29.2,11.9-38.8,16c-9.6,4.1-12.9,10.4-16,16.8C67,39.1,39.4,69.1,29.4,98.4c-10,29.3-10.6,38.6-14.9,52.5
				s-3.6,19.7,5.5,25.9c9.1,6.2,10.5,3.2,24,17.3c13.6,14.1,42.1,39.6,72.8,38.6c0,0-9.4-14.5-3.5-25.9c0,0-1.7,15.9,13,28.5
				s-2.4,46.4,31.6,80.4c16.4,16.4,20.7,55.6,20.7,55.6h138.1c0,0,4.3-39.2,20.7-55.6c34-34,16.8-67.8,31.6-80.4s13-28.5,13-28.5
				c5.9,11.4-3.5,25.9-3.5,25.9c30.7,1,59.2-24.5,72.8-38.6c13.6-14.1,14.9-11.1,24-17.3C484.3,170.6,485,164.7,480.7,150.9z
				 M184.3,270.6c27.4,12.1,48.5-21.8,48.5-21.8C212.6,293.8,184.3,270.6,184.3,270.6z M262.5,248.7c0,0,21.2,34,48.5,21.8
				C311,270.6,282.7,293.8,262.5,248.7z"/>
			<g>
				<path class="st2" d="M463.4,190.5C463.4,190.5,463.4,190.5,463.4,190.5c-0.5,0.4-1,0.8-1.6,1.3c0,0-0.1,0.1-0.1,0.1
					c-0.5,0.5-1.1,1-1.7,1.6c0,0,0,0-0.1,0.1c-0.6,0.5-1.2,1.2-1.9,1.8c-0.1,0.1-0.3,0.3-0.4,0.4c-0.7,0.7-1.3,1.4-2.1,2.1
					c-1.5,1.6-3.1,3.2-4.7,4.8c0,0-0.1,0.1-0.1,0.1c-1.6,1.6-3.4,3.2-5.1,4.8c3.1,13.3,4.8,27,4.8,41.2c0,25.7-5.4,50.2-15.2,72.6
					c0,0,0,0,0,0c1,0,2,0.1,3,0.3c0.1,0,0.2,0,0.3,0.1c0.8,0.1,1.6,0.3,2.4,0.5c0.2,0.1,0.5,0.1,0.7,0.2c0.7,0.2,1.3,0.5,2,0.7
					c0.2,0.1,0.5,0.2,0.7,0.3c0.8,0.4,1.7,0.8,2.5,1.3c0,0,0,0,0,0c1.5,1,2.8,2.1,4,3.3c0.4,0.5,0.8,1,1.2,1.5
					c0.1,0.2,0.3,0.3,0.4,0.5c0.2,0.3,0.4,0.6,0.6,0.9c0.3,0.4,0.5,0.8,0.8,1.2c11.7-25.6,18.2-53.8,18.2-83.4
					C472,228.5,469,209,463.4,190.5z"/>
				<path class="st2" d="M44.6,202.8C44.6,202.8,44.6,202.8,44.6,202.8c-1.7-1.7-3.4-3.3-4.9-4.9c-0.7-0.7-1.4-1.4-2-2
					c-0.2-0.2-0.3-0.3-0.5-0.5c-1.2-1.2-2.4-2.3-3.4-3.2c-0.1-0.1-0.2-0.2-0.3-0.3c-0.5-0.4-1-0.9-1.4-1.2
					c-5.6,18.5-8.6,37.9-8.6,58.1c0,29.5,6.4,57.7,18.1,83.2c0,0,0,0,0,0c0.8-1.4,1.8-2.7,2.9-3.9c0.1-0.1,0.2-0.1,0.2-0.2
					c0.5-0.5,1-1,1.6-1.5c0.6-0.5,1.3-1,2-1.4c0,0,0.1-0.1,0.1-0.1c0.8-0.5,1.6-0.9,2.5-1.3c0.2-0.1,0.5-0.2,0.7-0.3
					c0.7-0.3,1.4-0.6,2.2-0.8c0.2-0.1,0.4-0.1,0.6-0.2c1.9-0.5,3.9-0.8,6-0.9c0,0,0,0,0,0c-9.8-22.4-15.2-46.9-15.2-72.6
					c0-14.1,1.7-27.8,4.7-41C48.1,206.1,46.3,204.4,44.6,202.8z"/>
				<path class="st2" d="M97,92.7c0.1,0.6,0.2,1.3,0.3,1.9c0.2,1.1,0.3,2.1,0.4,3.2c0,0.2,0.1,0.4,0.1,0.6c0.1,0.9,0.2,1.8,0.4,2.7
					c0,0.2,0,0.4,0.1,0.6c0.4,3.2,0.7,6.3,0.8,9.3c0,0.1,0,0.1,0,0.2c0,1,0,2,0,2.9c0,0,0,0,0,0c0,2-0.2,3.9-0.5,5.7c0,0,0,0,0,0
					c23.3-23.9,53-42.2,86.5-52.4c0.3-0.6,0.7-1.3,1.2-1.9c1.1-1.5,1.7-3.1,2.1-4.3c-5.3-4-7.5-10.1-8-13.7c0,0,0,0,0,0
					C149,56.5,120.7,72.1,97,92.4C97,92.5,97,92.6,97,92.7z"/>
				<path class="st2" d="M279.2,42.6c6.8,3,12.1,8.4,15.3,15.8c0.7,1.6,1.3,3.4,1.8,5.1c39.2,9.1,73.9,28.8,100.4,55.9c0,0,0,0,0,0
					c-0.1-0.9-0.3-1.8-0.3-2.7c0-0.1,0-0.1,0-0.2c-0.1-0.8-0.1-1.6-0.1-2.5c0-0.2,0-0.4,0-0.6c0-0.8,0-1.5,0-2.3c0-0.2,0-0.3,0-0.5
					c0.1-1.9,0.2-3.9,0.4-5.9c0-0.2,0-0.3,0.1-0.5c0.1-0.8,0.2-1.7,0.3-2.5c0-0.3,0.1-0.5,0.1-0.8c0.1-0.8,0.2-1.6,0.3-2.5
					c0-0.2,0.1-0.5,0.1-0.7c0.1-1,0.3-2,0.4-3.1c0.1-0.4,0.1-0.8,0.2-1.2c0.1-0.4,0.1-0.8,0.2-1.1c-32.7-27.9-74.1-46.8-119.9-52.7
					C278.7,40.6,279,41.7,279.2,42.6z"/>
			</g>
		</g>
	</g>
</g>
<g id="DESIGNED_BY_FREEPIK">
</g>
</svg>
