<?xml version="1.0" encoding="utf-8"?>
<!-- Generator: Adobe Illustrator 22.1.0, SVG Export Plug-In . SVG Version: 6.00 Build 0)  -->
<svg version="1.1" id="图层_1" xmlns="http://www.w3.org/2000/svg" xmlns:xlink="http://www.w3.org/1999/xlink" x="0px" y="0px"
	 viewBox="0 0 116.2 103.5" style="enable-background:new 0 0 116.2 103.5;" xml:space="preserve">
<style type="text/css">
	.st0{fill:#FEFFFF;stroke:#FEFFFF;stroke-miterlimit:10;}
</style>
<g>
	<g>
		<g>
			<g>
				<path class="st0" d="M91.8,29.6L91.8,29.6c-0.9,0-1.7,0.4-2.4,1c-0.7,0.7-1.2,1.8-1.2,3v40.7c0,1.4,0.6,2.7,1.6,3.4
					c0.6,0.4,1.2,0.7,2,0.7h0c1,0,1.9-0.5,2.5-1.2c0.6-0.7,1-1.8,1-2.9V33.7c0-1.2-0.4-2.2-1.1-2.9C93.7,30,92.8,29.6,91.8,29.6z
					 M94.2,41.7c0,0-0.3-7.1-1.1-9c-0.5-1.2-1.4-1.5-1.4-1.5s2.6-0.3,2.6,3.1V41.7z"/>
				<path class="st0" d="M104,35.5c-0.6-0.4-1.3-0.7-2-0.7c-0.4,0-0.7,0.1-1,0.2c-1.5,0.5-2.5,2.1-2.5,3.9v30.3
					c0,1.5,0.7,2.8,1.7,3.5c0.5,0.4,1.2,0.6,1.8,0.6c0.8,0,1.5-0.3,2.1-0.8c0.9-0.7,1.4-1.9,1.4-3.3V38.9
					C105.5,37.5,104.9,36.3,104,35.5z M104.3,47c0,0-0.3-7.1-1.1-9c-0.5-1.2-1.4-1.5-1.4-1.5s2.6-0.3,2.6,3.1V47z"/>
				<path class="st0" d="M114.1,40.9c-0.6-0.4-1.3-0.7-2-0.7c-1,0-1.9,0.5-2.5,1.2c-0.6,0.7-1,1.8-1,2.9v19.5c0,1.4,0.6,2.7,1.6,3.4
					c0.6,0.4,1.3,0.7,2,0.7c0.6,0,1.2-0.2,1.7-0.5c1.1-0.7,1.8-2,1.8-3.6V44.3C115.7,42.9,115.1,41.7,114.1,40.9z M114.5,52.3
					c0,0-0.3-7.1-1.1-9c-0.5-1.2-1.4-1.5-1.4-1.5s2.6-0.3,2.6,3.1V52.3z"/>
			</g>
			<g>
				<path class="st0" d="M27.6,29.6L27.6,29.6c0.9,0,1.7,0.4,2.4,1c0.7,0.7,1.2,1.8,1.2,3v40.7c0,1.4-0.6,2.7-1.6,3.4
					c-0.6,0.4-1.2,0.7-2,0.7h0c-1,0-1.9-0.5-2.5-1.2c-0.6-0.7-1-1.8-1-2.9V33.7c0-1.2,0.4-2.2,1.1-2.9C25.8,30,26.7,29.6,27.6,29.6z
					 M25.3,41.7c0,0,0.3-7.1,1.1-9c0.5-1.2,1.4-1.5,1.4-1.5s-2.6-0.3-2.6,3.1V41.7z"/>
				<path class="st0" d="M15.5,35.5c0.6-0.4,1.3-0.7,2-0.7c0.4,0,0.7,0.1,1,0.2c1.5,0.5,2.5,2.1,2.5,3.9v30.3c0,1.5-0.7,2.8-1.7,3.5
					c-0.5,0.4-1.2,0.6-1.8,0.6c-0.8,0-1.5-0.3-2.1-0.8c-0.9-0.7-1.4-1.9-1.4-3.3V38.9C13.9,37.5,14.6,36.3,15.5,35.5z M15.2,47
					c0,0,0.3-7.1,1.1-9c0.5-1.2,1.4-1.5,1.4-1.5s-2.6-0.3-2.6,3.1V47z"/>
				<path class="st0" d="M5.4,40.9c0.6-0.4,1.3-0.7,2-0.7c1,0,1.9,0.5,2.5,1.2c0.6,0.7,1,1.8,1,2.9v19.5c0,1.4-0.6,2.7-1.6,3.4
					c-0.6,0.4-1.3,0.7-2,0.7c-0.6,0-1.2-0.2-1.7-0.5c-1.1-0.7-1.8-2-1.8-3.6V44.3C3.8,42.9,4.4,41.7,5.4,40.9z M5,52.3
					c0,0,0.3-7.1,1.1-9c0.5-1.2,1.4-1.5,1.4-1.5S5,41.5,5,44.9V52.3z"/>
			</g>
		</g>
		<path class="st0" d="M34.1,50.1V58h51.2v-7.8H34.1z M82.5,52.9H36.9v-1.1h45.6V52.9z"/>
		<path class="st0" d="M47,68.4l-3.8-0.6l-1.7-4l-1.7,4l-3.8,0.6l2.8,3.1L38,75.9l3.4-2.1l3.4,2.1l-0.7-4.4L47,68.4z M41.5,65.9
			l1,2.4l-1,1.5V65.9z M41.9,70l3.4-0.9l-1.8,1.8L41.9,70z M65.3,68.4l-3.8-0.6l-1.7-4l-1.7,4l-3.8,0.6l2.8,3.1l-0.7,4.4l3.4-2.1
			l3.4,2.1l-0.7-4.4L65.3,68.4z M59.7,65.9l1,2.4l-1,1.5V65.9z M60.1,70l3.4-0.9l-1.8,1.8L60.1,70z M83.5,68.4l-3.8-0.6l-1.7-4
			l-1.7,4l-3.8,0.6l2.8,3.1l-0.7,4.4l3.4-2.1l3.4,2.1l-0.7-4.4L83.5,68.4z M78,65.9l1,2.4l-1,1.5V65.9z M78.4,70l3.4-0.9L80,70.9
			L78.4,70z"/>
		<path class="st0" d="M45.4,19.3"/>
		<g>
			<path class="st0" d="M110.4,13.2"/>
			<path class="st0" d="M102.1,33.3C102.1,33.3,102.1,33.3,102.1,33.3c0.2,0,0.5,0,0.7,0.1c0,0,0,0,0.1,0c0.2,0,0.4,0.1,0.5,0.1
				c0.1,0,0.1,0,0.2,0.1c0.2,0.1,0.3,0.1,0.4,0.2c0.1,0,0.1,0.1,0.2,0.1c0.2,0.1,0.4,0.2,0.6,0.4c0,0,0,0,0,0
				c0.3,0.3,0.6,0.6,0.9,0.9c0.1,0.1,0.2,0.3,0.3,0.4c0,0,0.1,0.1,0.1,0.1c0.1,0.1,0.1,0.2,0.1,0.3c0.1,0.1,0.1,0.2,0.2,0.3"/>
			<path class="st0" d="M105.5,13.2"/>
			<path class="st0" d="M14,13.2"/>
			<path class="st0" d="M13.2,36.2C13.2,36.2,13.2,36.2,13.2,36.2c0.2-0.4,0.4-0.7,0.7-1.1c0,0,0,0,0.1-0.1c0.1-0.1,0.2-0.3,0.4-0.4
				c0.1-0.1,0.3-0.3,0.4-0.4c0,0,0,0,0,0c0.2-0.1,0.4-0.3,0.6-0.4c0.1,0,0.1-0.1,0.2-0.1c0.2-0.1,0.3-0.2,0.5-0.2c0,0,0.1,0,0.1,0
				c0.4-0.1,0.9-0.2,1.3-0.2c0,0,0,0,0,0"/>
			<path class="st0" d="M9.1,13.2"/>
		</g>
	</g>
</g>
</svg>
