<?xml version="1.0" encoding="utf-8"?>
<!-- Generator: Adobe Illustrator 22.1.0, SVG Export Plug-In . SVG Version: 6.00 Build 0)  -->
<svg version="1.1" id="图层_1" xmlns="http://www.w3.org/2000/svg" xmlns:xlink="http://www.w3.org/1999/xlink" x="0px" y="0px"
	 viewBox="0 0 123.1 101.7" style="enable-background:new 0 0 123.1 101.7;" xml:space="preserve">
<style type="text/css">
	.st0{fill:#FFFFFF;}
</style>
<path id="icon-1" class="st0" d="M112.4,101.7H10.7C4.8,101.7,0,96.9,0,91V10.7C0,4.8,4.8,0,10.7,0h101.7c5.9,0,10.7,4.8,10.7,10.7
	V91C123.1,96.9,118.3,101.7,112.4,101.7z M117.8,10.7c0-3-2.4-5.4-5.4-5.4H10.7c-3,0-5.3,2.4-5.3,5.4v16.1h112.4L117.8,10.7z
	 M117.8,32.1H5.4V91c0,3,2.4,5.4,5.4,5.4h101.7c3,0,5.4-2.4,5.4-5.4L117.8,32.1z M107.1,69.6h-5.4c-1.5,0-2.7-1.2-2.7-2.7
	c0,0,0,0,0,0v-5.3c0-1.5,1.2-2.7,2.7-2.7h5.4c1.5,0,2.7,1.2,2.7,2.7c0,0,0,0,0,0v5.4C109.7,68.4,108.5,69.6,107.1,69.6
	C107.1,69.6,107.1,69.6,107.1,69.6L107.1,69.6z M107.1,50.8h-5.4c-1.5,0-2.7-1.2-2.7-2.7c0,0,0,0,0,0v-5.3c0-1.5,1.2-2.7,2.7-2.7
	l0,0h5.4c1.5,0,2.7,1.2,2.7,2.7c0,0,0,0,0,0v5.4C109.7,49.6,108.5,50.8,107.1,50.8C107.1,50.8,107.1,50.8,107.1,50.8L107.1,50.8z
	 M85.6,69.6h-5.4c-1.5,0-2.7-1.2-2.7-2.7c0,0,0,0,0,0v-5.4c0-1.5,1.2-2.7,2.7-2.7h5.4c1.5,0,2.7,1.2,2.7,2.7c0,0,0,0,0,0v5.4
	C88.3,68.4,87.1,69.6,85.6,69.6C85.6,69.6,85.6,69.6,85.6,69.6z M85.6,50.8h-5.4c-1.5,0-2.7-1.2-2.7-2.7c0,0,0,0,0,0v-5.4
	c0-1.5,1.2-2.7,2.7-2.7c0,0,0,0,0,0h5.4c1.5,0,2.7,1.2,2.7,2.7c0,0,0,0,0,0v5.4C88.3,49.6,87.1,50.8,85.6,50.8
	C85.6,50.8,85.6,50.8,85.6,50.8z M64.2,69.6h-5.4c-1.5,0-2.7-1.2-2.7-2.7c0,0,0,0,0,0v-5.4c0-1.5,1.2-2.7,2.7-2.7c0,0,0,0,0,0h5.4
	c1.5,0,2.7,1.2,2.7,2.7c0,0,0,0,0,0v5.4C66.9,68.4,65.7,69.6,64.2,69.6C64.2,69.6,64.2,69.6,64.2,69.6z M64.2,50.8h-5.4
	c-1.5,0-2.7-1.2-2.7-2.7c0,0,0,0,0,0v-5.4c0-1.5,1.2-2.7,2.7-2.7c0,0,0,0,0,0h5.4c1.5,0,2.7,1.2,2.7,2.7c0,0,0,0,0,0v5.4
	C66.9,49.6,65.7,50.8,64.2,50.8C64.2,50.8,64.2,50.8,64.2,50.8z M42.8,88.3h-5.4c-1.5,0-2.7-1.2-2.7-2.7c0,0,0,0,0,0v-5.4
	c0-1.5,1.2-2.7,2.7-2.7c0,0,0,0,0,0h5.4c1.5,0,2.7,1.2,2.7,2.7c0,0,0,0,0,0v5.4C45.5,87.1,44.3,88.3,42.8,88.3
	C42.8,88.3,42.8,88.3,42.8,88.3z M42.8,69.6h-5.4c-1.5,0-2.7-1.2-2.7-2.7c0,0,0,0,0,0v-5.4c0-1.5,1.2-2.7,2.7-2.7c0,0,0,0,0,0h5.4
	c1.5,0,2.7,1.2,2.7,2.7c0,0,0,0,0,0v5.4C45.5,68.4,44.3,69.6,42.8,69.6C42.8,69.6,42.8,69.6,42.8,69.6z M42.8,50.8h-5.4
	c-1.5,0-2.7-1.2-2.7-2.7c0,0,0,0,0,0v-5.4c0-1.5,1.2-2.7,2.7-2.7c0,0,0,0,0,0h5.4c1.5,0,2.7,1.2,2.7,2.7c0,0,0,0,0,0v5.4
	C45.5,49.6,44.3,50.8,42.8,50.8C42.8,50.8,42.8,50.8,42.8,50.8z M21.4,88.3h-5.4c-1.5,0-2.7-1.2-2.7-2.7c0,0,0,0,0,0v-5.4
	c0-1.5,1.2-2.7,2.7-2.7c0,0,0,0,0,0h5.4c1.5,0,2.7,1.2,2.7,2.7c0,0,0,0,0,0v5.4C24.1,87.1,22.9,88.3,21.4,88.3
	C21.4,88.3,21.4,88.3,21.4,88.3z M21.4,69.6h-5.4c-1.5,0-2.7-1.2-2.7-2.7c0,0,0,0,0,0v-5.4c0-1.5,1.2-2.7,2.7-2.7c0,0,0,0,0,0h5.4
	c1.5,0,2.7,1.2,2.7,2.7c0,0,0,0,0,0v5.4C24.1,68.4,22.9,69.6,21.4,69.6C21.4,69.6,21.4,69.6,21.4,69.6z M58.9,77.6h5.4
	c1.5,0,2.7,1.2,2.7,2.7c0,0,0,0,0,0v5.4c0,1.5-1.2,2.7-2.7,2.7c0,0,0,0,0,0h-5.4c-1.5,0-2.7-1.2-2.7-2.7c0,0,0,0,0,0v-5.4
	C56.2,78.8,57.4,77.6,58.9,77.6C58.9,77.6,58.9,77.6,58.9,77.6z"/>
</svg>
