<?xml version="1.0" encoding="utf-8"?>
<!-- Generator: Adobe Illustrator 22.1.0, SVG Export Plug-In . SVG Version: 6.00 Build 0)  -->
<svg version="1.1" id="图层_1" xmlns="http://www.w3.org/2000/svg" xmlns:xlink="http://www.w3.org/1999/xlink" x="0px" y="0px"
	 viewBox="0 0 35.7 89.2" style="enable-background:new 0 0 35.7 89.2;" xml:space="preserve">
<style type="text/css">
	.st0{fill:none;}
	.st1{fill:none;stroke:#F86E53;stroke-width:5;stroke-miterlimit:10;}
	.st2{fill:#F86E53;}
</style>
<g id="scroll" transform="translate(-943.545 -867.862)">
	<g id="Rectangle_3" transform="translate(943.545 867.862)">
		<path class="st0" d="M17.8,0L17.8,0c9.9,0,17.8,8,17.8,17.8v53.5c0,9.9-8,17.8-17.8,17.8l0,0C8,89.2,0,81.2,0,71.4V17.8
			C0,8,8,0,17.8,0z"/>
		<path class="st1" d="M17.8,2.5L17.8,2.5c8.5,0,15.3,6.9,15.3,15.3v53.5c0,8.5-6.9,15.3-15.3,15.3l0,0c-8.5,0-15.3-6.9-15.3-15.3
			V17.8C2.5,9.4,9.4,2.5,17.8,2.5z"/>
	</g>
	<path id="Rectangle_4" class="st2" d="M961.4,916.3L961.4,916.3c2.8,0,5.1,2.3,5.1,5.1v15.3c0,2.8-2.3,5.1-5.1,5.1l0,0
		c-2.8,0-5.1-2.3-5.1-5.1v-15.3C956.3,918.6,958.6,916.3,961.4,916.3z"/>
</g>
</svg>
